<svg width="205" height="39" viewBox="0 0 205 39" fill="none" xmlns="http://www.w3.org/2000/svg">
<path fill-rule="evenodd" clip-rule="evenodd" d="M106.315 38.2657H98.775V34.4592C95.6259 36.8291 91.7058 38.2332 87.4529 38.2332C77.0397 38.2332 68.5907 29.7842 68.5907 19.3711C68.5907 8.95793 77.0397 0.508911 87.4529 0.508911C91.6977 0.508911 95.6178 1.91302 98.775 4.28297V0.508911H106.315V19.3711V29.5083V30.1332V38.2657ZM166.651 38.2657H174.191V34.4592C177.34 36.8291 181.26 38.2332 185.513 38.2332C195.927 38.2332 204.376 29.7842 204.376 19.3711C204.376 8.95793 195.927 0.508911 185.513 0.508911C181.269 0.508911 177.348 1.91302 174.191 4.28297V0.508911H166.651V19.3711V29.5083V30.1332V38.2657ZM185.513 8.04891C179.264 8.04891 174.191 13.1134 174.191 19.3711C174.191 25.6206 179.256 30.6932 185.513 30.6932C191.763 30.6932 196.836 25.6287 196.836 19.3711C196.836 13.1216 191.771 8.04891 185.513 8.04891ZM136.467 25.653C132.798 31.1478 126.784 38.2495 121.476 38.2414C117.67 38.2414 113.863 38.2008 110.049 38.2008V30.6689C114.245 30.6689 120.486 30.677 121.354 30.677C124.374 29.8897 129.763 22.228 131.508 19.3792C129.755 16.5385 124.374 8.86865 121.354 8.08137C120.486 8.08137 114.245 8.08949 110.049 8.08949V0.557609C113.863 0.557609 117.67 0.517027 121.476 0.517027C126.784 0.500795 132.79 7.61063 136.467 13.1053C140.135 7.61063 146.15 0.508911 151.458 0.517027C155.264 0.517027 159.071 0.557609 162.885 0.557609V8.08949C158.689 8.08949 152.448 8.08137 151.579 8.08137C148.56 8.86865 143.179 16.5304 141.426 19.3792C143.179 22.2199 148.56 29.8897 151.579 30.677C152.448 30.677 158.689 30.6689 162.885 30.6689V38.2008C159.071 38.2008 155.264 38.2414 151.458 38.2414C146.15 38.2495 140.144 31.1478 136.467 25.653ZM87.4529 8.04891C93.7024 8.04891 98.775 13.1134 98.775 19.3711C98.775 25.6206 93.7105 30.6932 87.4529 30.6932C81.2033 30.6932 76.1307 25.6287 76.1307 19.3711C76.1307 13.1216 81.1952 8.04891 87.4529 8.04891Z" fill="white"/>
<path fill-rule="evenodd" clip-rule="evenodd" d="M59.119 26.9841L64.9627 38.2657H51.8956L46.0519 26.9841H59.119Z" fill="#E75525"/>
<path fill-rule="evenodd" clip-rule="evenodd" d="M18.6271 11.9365C14.9666 12.4479 12.1259 15.6051 12.1259 19.3954C12.1259 23.3642 15.2182 26.6188 19.1221 26.8786C20.2016 27.0003 21.9547 26.9354 23.1072 26.9354C27.0436 26.6594 27.9202 24.9875 30.1034 22.1387L41.4418 0.695531H54.509L40.5896 26.9435C37.2376 33.8017 31.118 38.2575 23.3182 38.2575C21.7518 38.2575 19.5767 38.2819 18.0183 38.1845C8.38435 37.3404 0.828125 29.5082 0.828125 19.3873C0.828125 9.26629 9.26902 0.549438 19.6822 0.549438H30.9962V0.59002L25.0389 11.8635C23.8783 11.8635 22.7176 11.8635 21.557 11.8635C20.6399 11.8635 19.5442 11.8067 18.6352 11.9365H18.6271Z" fill="#E75525"/>
</svg>
