<svg width="205" height="39" viewBox="0 0 205 39" fill="none" xmlns="http://www.w3.org/2000/svg">
<path fill-rule="evenodd" clip-rule="evenodd" d="M106.315 38.2728H98.775V34.4663C95.6259 36.8362 91.7058 38.2403 87.4529 38.2403C77.0397 38.2403 68.5907 29.7913 68.5907 19.3782C68.5907 8.96501 77.0397 0.515991 87.4529 0.515991C91.6977 0.515991 95.6178 1.9201 98.775 4.29005V0.515991H106.315V19.3782V29.5153V30.1403V38.2728ZM166.651 38.2728H174.191V34.4663C177.34 36.8362 181.26 38.2403 185.513 38.2403C195.927 38.2403 204.376 29.7913 204.376 19.3782C204.376 8.96501 195.927 0.515991 185.513 0.515991C181.269 0.515991 177.348 1.9201 174.191 4.29005V0.515991H166.651V19.3782V29.5153V30.1403V38.2728ZM185.513 8.05599C179.264 8.05599 174.191 13.1205 174.191 19.3782C174.191 25.6277 179.256 30.7003 185.513 30.7003C191.763 30.7003 196.836 25.6358 196.836 19.3782C196.836 13.1286 191.771 8.05599 185.513 8.05599ZM136.467 25.6601C132.798 31.1548 126.784 38.2565 121.476 38.2484C117.67 38.2484 113.863 38.2078 110.049 38.2078V30.676C114.245 30.676 120.486 30.6841 121.354 30.6841C124.374 29.8968 129.763 22.2351 131.508 19.3863C129.755 16.5456 124.374 8.87573 121.354 8.08845C120.486 8.08845 114.245 8.09657 110.049 8.09657V0.564689C113.863 0.564689 117.67 0.524107 121.476 0.524107C126.784 0.507875 132.79 7.61771 136.467 13.1124C140.135 7.61771 146.15 0.515991 151.458 0.524107C155.264 0.524107 159.071 0.564689 162.885 0.564689V8.09657C158.689 8.09657 152.448 8.08845 151.579 8.08845C148.56 8.87573 143.179 16.5375 141.426 19.3863C143.179 22.227 148.56 29.8968 151.579 30.6841C152.448 30.6841 158.689 30.676 162.885 30.676V38.2078C159.071 38.2078 155.264 38.2484 151.458 38.2484C146.15 38.2565 140.144 31.1548 136.467 25.6601ZM87.4529 8.05599C93.7024 8.05599 98.775 13.1205 98.775 19.3782C98.775 25.6277 93.7105 30.7003 87.4529 30.7003C81.2033 30.7003 76.1307 25.6358 76.1307 19.3782C76.1307 13.1286 81.1952 8.05599 87.4529 8.05599Z" fill="#2B176A"/>
<path fill-rule="evenodd" clip-rule="evenodd" d="M59.119 26.9912L64.9627 38.2728H51.8956L46.0519 26.9912H59.119Z" fill="#E75525"/>
<path fill-rule="evenodd" clip-rule="evenodd" d="M18.6271 11.9436C14.9666 12.4549 12.1259 15.6122 12.1259 19.4024C12.1259 23.3713 15.2182 26.6259 19.1221 26.8856C20.2016 27.0074 21.9547 26.9424 23.1072 26.9424C27.0436 26.6665 27.9202 24.9945 30.1034 22.1457L41.4418 0.702611H54.509L40.5896 26.9506C37.2376 33.8088 31.118 38.2646 23.3182 38.2646C21.7518 38.2646 19.5767 38.289 18.0183 38.1916C8.38435 37.3475 0.828125 29.5153 0.828125 19.3943C0.828125 9.27337 9.26902 0.556519 19.6822 0.556519H30.9962V0.5971L25.0389 11.8706C23.8783 11.8706 22.7176 11.8706 21.557 11.8706C20.6399 11.8706 19.5442 11.8138 18.6352 11.9436H18.6271Z" fill="#E75525"/>
</svg>
