<svg width="56" height="33" viewBox="0 0 56 33" fill="none" xmlns="http://www.w3.org/2000/svg">
<path fill-rule="evenodd" clip-rule="evenodd" d="M50.6904 23.2424L55.7445 32.9996H44.443L39.3889 23.2424H50.6904Z" fill="#E75525"/>
<path fill-rule="evenodd" clip-rule="evenodd" d="M15.6698 10.2281C12.504 10.6703 10.0471 13.4009 10.0471 16.6791C10.0471 20.1117 12.7216 22.9265 16.098 23.1511C17.0316 23.2564 18.5478 23.2003 19.5446 23.2003C22.9491 22.9616 23.7072 21.5156 25.5955 19.0517L35.4018 0.505991H46.7033L34.6648 23.2073C31.7657 29.1388 26.4729 32.9926 19.7271 32.9926C18.3723 32.9926 16.4911 33.0136 15.1433 32.9294C6.8111 32.1994 0.275879 25.4255 0.275879 16.6721C0.275879 7.91866 7.57623 0.379639 16.5823 0.379639H26.3676V0.414737L21.2153 10.1649C20.2115 10.1649 19.2077 10.1649 18.2039 10.1649C17.4107 10.1649 16.463 10.1158 15.6768 10.2281H15.6698Z" fill="#E75525"/>
</svg>
